<?xml version="1.0" ?><svg viewBox="0 0 96 96" xmlns="http://www.w3.org/2000/svg"><title/><g data-name="Layer 2" id="Layer_2"><g data-name="Layer 2" id="Layer_2-2"><path d="M48,0A48,48,0,1,0,96,48,48,48,0,0,0,48,0ZM68.47,37.81v1.32a28.06,28.06,0,0,1-.69,6.17C65.18,57,55.17,68.17,39,68.17a29.94,29.94,0,0,1-15.9-4.58c.85.08,1.64.14,2.49.14a21,21,0,0,0,12.86-4.36,10.46,10.46,0,0,1-9.68-7.13,9.26,9.26,0,0,0,1.95.22,10.19,10.19,0,0,0,2.74-.38,10.34,10.34,0,0,1-7.62-6.31,9.66,9.66,0,0,1-.71-3.67V42a10,10,0,0,0,4.69,1.26A10.08,10.08,0,0,1,26.6,29.59,29.44,29.44,0,0,0,48,40.26a10.67,10.67,0,0,1-.3-2.33,10.42,10.42,0,0,1,18-7,21.13,21.13,0,0,0,6.61-2.49,10.23,10.23,0,0,1-4.58,5.68,22.1,22.1,0,0,0,5.95-1.62A21.46,21.46,0,0,1,68.47,37.81Z"/></g></g></svg>